<svg width="125" height="26" viewBox="0 0 125 26" fill="none" xmlns="http://www.w3.org/2000/svg">
<mask id="mask0_20_360" style="mask-type:alpha" maskUnits="userSpaceOnUse" x="0" y="0" width="28" height="26">
<ellipse cx="13.9325" cy="13" rx="13.1376" ry="13" fill="#B99BFF"/>
</mask>
<g mask="url(#mask0_20_360)">
<path d="M2.0918 2.99365H16.1362C16.1362 3.84453 15.4465 4.53429 14.5956 4.53429H3.63244C2.78157 4.53429 2.0918 3.84453 2.0918 2.99365Z" fill="white"/>
<path d="M-0.371094 2.95215H27.6956V3.72247H-0.371094V2.95215Z" fill="white"/>
<path d="M-1.09375 0.217773H12.3123C12.3123 1.06865 11.6225 1.75842 10.7717 1.75842H0.446894C-0.403979 1.75842 -1.09375 1.06865 -1.09375 0.217773Z" fill="white"/>
<rect x="-0.0253906" y="-0.182617" width="27.9928" height="1.01464" fill="white"/>
<path d="M0.0177002 5.76709H18.1951C18.1951 6.61796 17.5053 7.30773 16.6544 7.30773H1.55834C0.707467 7.30773 0.0177002 6.61796 0.0177002 5.76709Z" fill="white"/>
<path d="M-0.154175 5.72803H27.9125V6.49835H-0.154175V5.72803Z" fill="white"/>
<path d="M1.23633 8.51221H18.5713C18.5713 9.36308 17.8815 10.0528 17.0306 10.0528H1.23633V8.51221Z" fill="white"/>
<path d="M-0.333984 8.50195H27.6576V9.27227H-0.333984V8.50195Z" fill="white"/>
<path d="M0.46106 11.396H18.027C18.027 12.2469 17.3372 12.9366 16.4863 12.9366H0.46106V11.396Z" fill="white"/>
<path d="M-0.333984 11.2466H27.6576V12.0169H-0.333984V11.2466Z" fill="white"/>
<path d="M-0.878906 14.1309H16.1697C16.1697 14.9817 15.4799 15.6715 14.629 15.6715H-0.878906V14.1309Z" fill="white"/>
<path d="M0.19519 14.1309H28.1868V14.9012H0.19519V14.1309Z" fill="white"/>
<path d="M0.267578 16.9033H9.8418C9.8418 17.7542 9.15203 18.444 8.30116 18.444H0.267578V16.9033Z" fill="white"/>
<path d="M-0.333984 16.8657H27.6576V17.636H-0.333984V16.8657Z" fill="white"/>
<path d="M1.33203 19.6592H9.41669C9.41669 20.5101 8.72692 21.1998 7.87605 21.1998H1.33203V19.6592Z" fill="white"/>
<path d="M-0.342591 19.6372H27.649L27.6205 20.4075H-0.371107L-0.342591 19.6372Z" fill="white"/>
<path d="M1.33203 22.4004H9.41669C9.41669 23.2513 8.72692 23.941 7.87605 23.941H1.33203V22.4004Z" fill="white"/>
<path d="M-0.371094 22.394H27.6956V23.1644H-0.371094V22.394Z" fill="white"/>
<rect x="-0.371094" y="25.1348" width="28.0666" height="0.842264" fill="white"/>
</g>
<path d="M37.2877 18.3623V7.92208H40.8153C41.6344 7.92208 42.3039 8.06991 42.8239 8.36558C43.3472 8.65786 43.7347 9.05378 43.9861 9.55336C44.2376 10.0529 44.3634 10.6103 44.3634 11.2254C44.3634 11.8406 44.2376 12.3996 43.9861 12.9026C43.7381 13.4056 43.354 13.8066 42.8341 14.1057C42.3141 14.4013 41.648 14.5492 40.8357 14.5492H38.3072V13.4277H40.7949C41.3557 13.4277 41.806 13.3308 42.1459 13.1371C42.4857 12.9434 42.7321 12.6817 42.885 12.352C43.0414 12.019 43.1195 11.6434 43.1195 11.2254C43.1195 10.8074 43.0414 10.4336 42.885 10.1039C42.7321 9.77427 42.484 9.51598 42.1408 9.32906C41.7975 9.13875 41.3421 9.04359 40.7746 9.04359H38.5519V18.3623H37.2877ZM46.2368 18.3623V10.5321H47.3991V11.7148H47.4807C47.6234 11.3274 47.8817 11.013 48.2555 10.7717C48.6294 10.5304 49.0508 10.4098 49.5198 10.4098C49.6081 10.4098 49.7186 10.4115 49.8511 10.4149C49.9837 10.4183 50.0839 10.4234 50.1519 10.4302V11.6536C50.1111 11.6434 50.0177 11.6282 49.8715 11.6078C49.7288 11.584 49.5775 11.5721 49.4178 11.5721C49.0372 11.5721 48.6973 11.6519 48.3983 11.8117C48.1026 11.968 47.8681 12.1855 47.6948 12.4642C47.5248 12.7395 47.4399 13.0538 47.4399 13.4073V18.3623H46.2368ZM54.6226 18.5254C53.8682 18.5254 53.2174 18.3589 52.6702 18.0259C52.1264 17.6894 51.7067 17.2204 51.411 16.6189C51.1188 16.0139 50.9726 15.3104 50.9726 14.5084C50.9726 13.7063 51.1188 12.9995 51.411 12.3877C51.7067 11.7726 52.1179 11.2934 52.6447 10.9502C53.1749 10.6035 53.7934 10.4302 54.5003 10.4302C54.9081 10.4302 55.3108 10.4982 55.7085 10.6341C56.1061 10.77 56.468 10.9909 56.7943 11.2968C57.1205 11.5993 57.3805 12.0003 57.5742 12.4999C57.768 12.9995 57.8648 13.6146 57.8648 14.3453V14.855H51.8291V13.8151H56.6414C56.6414 13.3733 56.553 12.9791 56.3763 12.6324C56.2029 12.2858 55.9549 12.0122 55.632 11.8117C55.3125 11.6112 54.9353 11.5109 54.5003 11.5109C54.0211 11.5109 53.6065 11.6299 53.2564 11.8678C52.9098 12.1022 52.643 12.4081 52.4561 12.7853C52.2692 13.1626 52.1757 13.567 52.1757 13.9986V14.6919C52.1757 15.2833 52.2777 15.7845 52.4816 16.1958C52.6889 16.6036 52.9761 16.9145 53.3431 17.1286C53.7101 17.3394 54.1366 17.4447 54.6226 17.4447C54.9387 17.4447 55.2242 17.4005 55.4791 17.3122C55.7373 17.2204 55.96 17.0845 56.1469 16.9043C56.3338 16.7208 56.4782 16.4931 56.5802 16.2212L57.7425 16.5475C57.6201 16.9417 57.4145 17.2884 57.1256 17.5874C56.8368 17.8831 56.4799 18.1142 56.0551 18.2807C55.6303 18.4439 55.1528 18.5254 54.6226 18.5254ZM59.6949 18.3623V10.5321H60.8572V11.7556H60.9592C61.1223 11.3376 61.3857 11.013 61.7493 10.7819C62.113 10.5474 62.5497 10.4302 63.0594 10.4302C63.576 10.4302 64.0059 10.5474 64.3492 10.7819C64.6958 11.013 64.966 11.3376 65.1597 11.7556H65.2413C65.4418 11.3512 65.7426 11.03 66.1436 10.7921C66.5446 10.5508 67.0255 10.4302 67.5863 10.4302C68.2864 10.4302 68.859 10.6494 69.3042 11.0878C69.7494 11.5228 69.972 12.2008 69.972 13.1218V18.3623H68.7689V13.1218C68.7689 12.5441 68.6109 12.1311 68.2948 11.883C67.9788 11.635 67.6066 11.5109 67.1784 11.5109C66.6279 11.5109 66.2014 11.6774 65.8989 12.0105C65.5964 12.3401 65.4452 12.7582 65.4452 13.2645V18.3623H64.2217V12.9995C64.2217 12.5542 64.0773 12.1957 63.7884 11.9238C63.4995 11.6485 63.1274 11.5109 62.672 11.5109C62.3593 11.5109 62.0671 11.5942 61.7952 11.7607C61.5267 11.9272 61.3092 12.1583 61.1427 12.454C60.9796 12.7463 60.898 13.0844 60.898 13.4684V18.3623H59.6949ZM72.1717 18.3623V10.5321H73.3748V18.3623H72.1717ZM72.7834 9.22711C72.5489 9.22711 72.3467 9.14724 72.1768 8.98751C72.0103 8.82778 71.927 8.63577 71.927 8.41147C71.927 8.18716 72.0103 7.99515 72.1768 7.83542C72.3467 7.67569 72.5489 7.59582 72.7834 7.59582C73.0179 7.59582 73.2184 7.67569 73.385 7.83542C73.5549 7.99515 73.6399 8.18716 73.6399 8.41147C73.6399 8.63577 73.5549 8.82778 73.385 8.98751C73.2184 9.14724 73.0179 9.22711 72.7834 9.22711ZM80.5129 15.1609V10.5321H81.716V18.3623H80.5129V17.0369H80.4314C80.2478 17.4345 79.9624 17.7727 79.5749 18.0513C79.1875 18.3266 78.6981 18.4643 78.1068 18.4643C77.6174 18.4643 77.1824 18.3572 76.8017 18.1431C76.4211 17.9256 76.122 17.5993 75.9045 17.1643C75.687 16.7259 75.5783 16.1737 75.5783 15.5076V10.5321H76.7814V15.426C76.7814 15.9969 76.9411 16.4523 77.2605 16.7922C77.5834 17.132 77.9946 17.302 78.4942 17.302C78.7933 17.302 79.0974 17.2255 79.4067 17.0726C79.7194 16.9196 79.981 16.6851 80.1918 16.3691C80.4059 16.053 80.5129 15.6503 80.5129 15.1609ZM83.9195 18.3623V10.5321H85.0818V11.7556H85.1837C85.3469 11.3376 85.6103 11.013 85.9739 10.7819C86.3375 10.5474 86.7742 10.4302 87.284 10.4302C87.8006 10.4302 88.2305 10.5474 88.5738 10.7819C88.9204 11.013 89.1906 11.3376 89.3843 11.7556H89.4659C89.6664 11.3512 89.9671 11.03 90.3682 10.7921C90.7692 10.5508 91.2501 10.4302 91.8108 10.4302C92.5109 10.4302 93.0836 10.6494 93.5288 11.0878C93.974 11.5228 94.1966 12.2008 94.1966 13.1218V18.3623H92.9935V13.1218C92.9935 12.5441 92.8355 12.1311 92.5194 11.883C92.2034 11.635 91.8312 11.5109 91.403 11.5109C90.8525 11.5109 90.4259 11.6774 90.1235 12.0105C89.821 12.3401 89.6698 12.7582 89.6698 13.2645V18.3623H88.4463V12.9995C88.4463 12.5542 88.3019 12.1957 88.013 11.9238C87.7241 11.6485 87.352 11.5109 86.8966 11.5109C86.5839 11.5109 86.2917 11.5942 86.0198 11.7607C85.7513 11.9272 85.5338 12.1583 85.3673 12.454C85.2041 12.7463 85.1226 13.0844 85.1226 13.4684V18.3623H83.9195ZM101.866 10.9247C101.825 10.5134 101.65 10.194 101.341 9.96628C101.032 9.73858 100.612 9.62473 100.082 9.62473C99.7217 9.62473 99.4176 9.67571 99.1695 9.77767C98.9214 9.87622 98.7311 10.0139 98.5985 10.1906C98.4694 10.3673 98.4048 10.5678 98.4048 10.7921C98.398 10.979 98.4371 11.1422 98.5221 11.2815C98.6104 11.4208 98.7311 11.5415 98.884 11.6434C99.0369 11.742 99.2136 11.8287 99.4142 11.9034C99.6147 11.9748 99.8288 12.036 100.056 12.087L100.994 12.3113C101.45 12.4132 101.868 12.5492 102.249 12.7191C102.629 12.889 102.959 13.098 103.237 13.3461C103.516 13.5942 103.732 13.8865 103.885 14.2229C104.041 14.5594 104.121 14.9451 104.124 15.3801C104.121 16.019 103.958 16.573 103.635 17.042C103.316 17.5076 102.853 17.8695 102.249 18.1278C101.647 18.3827 100.921 18.5101 100.072 18.5101C99.2289 18.5101 98.4949 18.381 97.8695 18.1227C97.2476 17.8644 96.7616 17.4821 96.4116 16.9757C96.0649 16.4659 95.8831 15.8355 95.8661 15.0844H98.0021C98.0259 15.4345 98.1261 15.7268 98.3028 15.9613C98.483 16.1924 98.7226 16.3674 99.0216 16.4863C99.3241 16.6019 99.6657 16.6597 100.046 16.6597C100.42 16.6597 100.745 16.6053 101.02 16.4965C101.299 16.3878 101.514 16.2365 101.667 16.0428C101.82 15.8491 101.897 15.6265 101.897 15.375C101.897 15.1405 101.827 14.9434 101.688 14.7837C101.552 14.6239 101.351 14.488 101.086 14.3759C100.825 14.2637 100.503 14.1617 100.123 14.07L98.9859 13.7845C98.1057 13.5704 97.4107 13.2357 96.901 12.7803C96.3912 12.3249 96.138 11.7114 96.1414 10.94C96.138 10.3078 96.3062 9.75558 96.6461 9.28318C96.9893 8.81079 97.46 8.44205 98.0582 8.17697C98.6563 7.91188 99.336 7.77934 100.097 7.77934C100.872 7.77934 101.548 7.91188 102.126 8.17697C102.707 8.44205 103.159 8.81079 103.482 9.28318C103.805 9.75558 103.972 10.3027 103.982 10.9247H101.866ZM109.106 18.5152C108.314 18.5152 107.63 18.347 107.052 18.0106C106.478 17.6707 106.034 17.1983 105.721 16.5934C105.409 15.985 105.252 15.2799 105.252 14.4778C105.252 13.669 105.409 12.9621 105.721 12.3571C106.034 11.7488 106.478 11.2764 107.052 10.94C107.63 10.6001 108.314 10.4302 109.106 10.4302C109.898 10.4302 110.581 10.6001 111.156 10.94C111.733 11.2764 112.179 11.7488 112.491 12.3571C112.804 12.9621 112.96 13.669 112.96 14.4778C112.96 15.2799 112.804 15.985 112.491 16.5934C112.179 17.1983 111.733 17.6707 111.156 18.0106C110.581 18.347 109.898 18.5152 109.106 18.5152ZM109.116 16.833C109.477 16.833 109.777 16.731 110.019 16.5271C110.26 16.3198 110.442 16.0377 110.564 15.6809C110.69 15.324 110.753 14.9179 110.753 14.4625C110.753 14.0071 110.69 13.601 110.564 13.2441C110.442 12.8873 110.26 12.6052 110.019 12.3979C109.777 12.1906 109.477 12.087 109.116 12.087C108.753 12.087 108.447 12.1906 108.199 12.3979C107.954 12.6052 107.769 12.8873 107.643 13.2441C107.521 13.601 107.46 14.0071 107.46 14.4625C107.46 14.9179 107.521 15.324 107.643 15.6809C107.769 16.0377 107.954 16.3198 108.199 16.5271C108.447 16.731 108.753 16.833 109.116 16.833ZM118.583 10.5321V12.1634H113.75V10.5321H118.583ZM114.857 18.3623V9.96628C114.857 9.39873 114.967 8.92804 115.188 8.5542C115.412 8.18037 115.718 7.89999 116.106 7.71307C116.493 7.52615 116.933 7.43269 117.426 7.43269C117.759 7.43269 118.063 7.45818 118.338 7.50916C118.617 7.56014 118.824 7.60602 118.96 7.6468L118.573 9.27809C118.488 9.2509 118.383 9.22541 118.257 9.20162C118.134 9.17783 118.009 9.16593 117.88 9.16593C117.56 9.16593 117.337 9.2407 117.212 9.39024C117.086 9.53637 117.023 9.74198 117.023 10.0071V18.3623H114.857ZM124.075 10.5321V12.1634H119.359V10.5321H124.075ZM120.43 8.65616H122.601V15.9562C122.601 16.1567 122.632 16.313 122.693 16.4252C122.754 16.5339 122.839 16.6104 122.948 16.6546C123.06 16.6987 123.189 16.7208 123.335 16.7208C123.437 16.7208 123.539 16.7123 123.641 16.6953C123.743 16.6749 123.821 16.6597 123.876 16.6495L124.217 18.2654C124.109 18.2994 123.956 18.3385 123.759 18.3827C123.561 18.4303 123.322 18.4592 123.04 18.4694C122.516 18.4897 122.058 18.4201 121.663 18.2603C121.273 18.1006 120.968 17.8525 120.751 17.5161C120.533 17.1796 120.426 16.7548 120.43 16.2416V8.65616Z" fill="white"/>
</svg>
