<svg width="28" height="28" viewBox="0 0 28 28" fill="none" xmlns="http://www.w3.org/2000/svg">
<rect x="0.5" y="0.5" width="27" height="27" rx="13.5" stroke="white"/>
<rect width="28" height="28" rx="14" fill="#050505" fill-opacity="0.16"/>
<path d="M19.6 8.82146L17.4962 19.8045C17.4962 19.8045 17.2018 20.566 16.3932 20.2008L11.5392 16.3467L11.5167 16.3353C12.1723 15.7257 17.2567 10.9918 17.4789 10.7772C17.8229 10.4449 17.6093 10.247 17.2099 10.4981L9.69974 15.437L6.80233 14.4274C6.80233 14.4274 6.34637 14.2595 6.3025 13.8943C6.25806 13.5285 6.81734 13.3306 6.81734 13.3306L18.6292 8.53217C18.6292 8.53217 19.6 8.09045 19.6 8.82146Z" fill="white"/>
</svg>
