<svg width="28" height="28" viewBox="0 0 28 28" fill="none" xmlns="http://www.w3.org/2000/svg">
<rect x="0.5" y="0.5" width="27" height="27" rx="13.5" stroke="#121212"/>
<rect width="28" height="28" rx="14" fill="white" fill-opacity="0.16"/>
<path fill-rule="evenodd" clip-rule="evenodd" d="M7.88373 18.9398C7.60915 18.8585 7.35861 18.714 7.15326 18.5184C6.94791 18.3228 6.79377 18.0818 6.70385 17.8159C6.19003 16.4412 6.03779 10.7009 7.02737 9.56765C7.35672 9.19901 7.82171 8.97205 8.32143 8.93603C10.9762 8.65738 19.1782 8.69453 20.1202 9.02892C20.3852 9.11283 20.6272 9.25418 20.8283 9.44239C21.0293 9.63059 21.1841 9.86077 21.2811 10.1157C21.8425 11.5368 21.8615 16.7012 21.2049 18.0666C21.0308 18.4221 20.7392 18.71 20.3771 18.884C19.3876 19.367 9.19682 19.3578 7.88373 18.9398ZM12.0989 16.2461L16.8565 13.8311L12.0989 11.3975V16.2461Z" fill="#121212"/>
</svg>
